<svg xmlns="http://www.w3.org/2000/svg" width="192" height="192" fill="none">
    <g clip-path="url(#a)">
        <path fill="#fff"
              d="M0 32C0 14.327 14.327 0 32 0h128c17.673 0 32 14.327 32 32v128c0 17.673-14.327 32-32 32H32c-17.673 0-32-14.327-32-32V32Z"/>
        <path fill="#191919" fill-rule="evenodd"
              d="M0 0h192v192H0v-61.632h61.536v61.536h24v-61.536h24.768c26.976 0 48.768-21.888 48.768-48.768h.096c0-26.976-21.888-48.768-48.768-48.768S61.632 54.72 61.632 81.6v24.768H0V0Zm135.168 81.6c0-13.632-11.136-24.768-24.768-24.768-13.632 0-24.768 11.136-24.768 24.768v24.768H110.4c13.632 0 24.768-11.136 24.768-24.768Z"
              clip-rule="evenodd"/>
    </g>
    <defs>
        <clipPath id="a">
            <path fill="#fff"
                  d="M0 32C0 14.327 14.327 0 32 0h128c17.673 0 32 14.327 32 32v128c0 17.673-14.327 32-32 32H32c-17.673 0-32-14.327-32-32V32Z"/>
        </clipPath>
    </defs>
</svg>